<svg version="1" xmlns="http://www.w3.org/2000/svg" width="400" height="400" viewBox="0 0 300.000000 300.000000"><path d="M132 51.7c-5.2 2.3-13.7 9.9-17.4 15.7-7.2 11.3-9.3 26.3-4.8 34l2.3 3.9-3.3 3.6c-1.8 1.9-3.5 3.8-3.8 4.1-2.3 2.1-10.7 14.2-15.4 21.9C76.8 156 70 172.7 70 183.2c0 9.9 4.2 22.6 9.8 29.3 3.1 3.8 12.4 11.1 15.4 12 2.6.9.5 4.5-2.7 4.5-6.1 0-13.3 5.5-16.6 12.5-3.7 7.9-1.7 18.3 4.2 22.7 2.2 1.7 2.9 3.2 3.5 7.6.8 6.4-.9 17.9-3.6 23.9-1.4 3.3-1.6 4.3-.6 4.3.8 0 1.6-.9 1.9-2 .7-2.9 9.8-2.9 13.4 0 1.5 1.2 4.1 2 6.3 2h3.7l-.1-8.7c-.1-9.7 1.5-15.3 4.4-15.3 1 0 2.2.6 2.7 1.2 1.8 2.5 3.3 9.6 3.3 16.2v6.6h93.9l.6-4.4c.4-2.4.4-5.3 0-6.5-1.4-4.4.6-1.8 3.4 4.4l3 6.5h4.6c4.2 0 4.5-.2 3.5-1.9-1.5-3-1.4-3.1 3.8-3.1 4.2 0 5 .3 6 2.5.7 1.4 2 2.5 3.1 2.5 1.8 0 1.7-.5-1.4-5.7-4.1-6.9-7.8-16.6-9.5-24.6-1.1-5.6-1.1-5.8 1.3-7.7 9.1-7.2 8.6-25.3-.9-34.2-4.2-3.9-12.6-7.8-16.9-7.8h-3.7l3.7-4.1c11.1-12.3 13.6-34.7 6.4-56.3-7.1-21.2-24.8-46.1-42.2-59.2-4.8-3.6-12.6-8.1-15.4-8.9-.1-.1.4-1.9 1.2-4 .8-2.2 1.4-7.4 1.5-11.6 0-12.2-3.8-20.2-11.5-23.9-4.9-2.4-12.4-2.5-17.5-.3zm.4 6.2c1.2 1.8-.7 4.1-3.9 4.7-2.4.4-3.8 1.5-5.5 4.6-1.2 2.1-3.3 4.4-4.6 5-2.9 1.3-4 4.8-2.5 7.6 2.1 4 .8 13.2-1.8 13.2-1.2 0-3.1-5.6-3.1-9 0-8.1 7.4-21 12.1-21 1.1 0 1.9-.6 1.9-1.4 0-2.8 6.1-5.8 7.4-3.7zM122.5 75c0 .9-1.1 1.6-2.7 1.8-2 .2-2.8-.1-2.8-1.2 0-.8.6-1.7 1.3-1.9 2.1-.9 4.2-.2 4.2 1.3zm11.5 4c0 .5-.7 1-1.5 1s-1.5-.5-1.5-1c0-.6.7-1 1.5-1s1.5.4 1.5 1zm30.4 20c.9.9-2.3 7-3.7 7-.8 0-6.7-3.2-8.6-4.6-.2-.2.7-1.7 1.9-3.3 2.1-3.1 2.1-3.1 5.8-1.5 2 .8 4.1 1.9 4.6 2.4zm-34.6 12.7c-1 .2-2.8.2-4 0-1.3-.2-.5-.4 1.7-.4 2.2-.1 3.2.1 2.3.4zm-29.6 14.5c-14.6 24-21.4 45.1-19.6 61.3.9 8.9 3.7 14 11.2 20.9 18.4 16.9 19.7 20.2 5.3 13-14.7-7.4-22.9-19-23.8-33.8-.8-12.6 3.9-27.1 15.4-47.1 5.4-9.3 15.4-23.7 16.1-23 .3.2-1.8 4.2-4.6 8.7zm52.1-4.5c-2.4.2-6.2.2-8.5 0-2.4-.2-.5-.4 4.2-.4s6.6.2 4.3.4zm-16.5 1c-1 .2-2.6.2-3.5 0-1-.3-.2-.5 1.7-.5s2.7.2 1.8.5zm-10.5 1c-.7.2-1.9.2-2.5 0-.7-.3-.2-.5 1.2-.5s1.9.2 1.3.5zm30.9.3c5.6 1.6 9.8 6.3 9.8 10.9 0 2.3-.7 4.4-1.7 5.4-2.6 2.2-10.9 4.3-26.7 6.7-15.7 2.3-27.2 2.6-31.1.8-2.8-1.2-6.5-7.4-6.5-10.6 0-2.1 3.2-5.3 7.6-7.5 9.1-4.6 39.6-8.2 48.6-5.7zm-10.5 26.6c-.3.3-1.2.4-1.9.1-.8-.3-.5-.6.6-.6 1.1-.1 1.7.2 1.3.5zm-16 2c-.3.3-1.2.4-1.9.1-.8-.3-.5-.6.6-.6 1.1-.1 1.7.2 1.3.5zm20 22.4c.3 1 .2 1.1-.4.4-.4-.7-1.9-1.4-3.3-1.7-2.2-.4-2.1-.5.4-.4 1.7.1 3.1.9 3.3 1.7zm-19.4 1.7c-.7.2-2.1.2-3 0-1-.3-.4-.5 1.2-.5 1.7 0 2.4.2 1.8.5zm17.1 3c.8 5.2.7 14.6-.2 15.9-.4.6-2.6 1.5-4.9 1.9l-4.3.7V178l2.8-.6c1.5-.3 3.2-.7 3.7-.9 2-.7 2.3-.4 2.9 3.2zM137 188c0 9.9 0 10.1-2.1 9-4.5-2.5-7.1-17.3-3.1-18.3 5.2-1.4 5.2-1.4 5.2 9.3zm-14.3-2.3c-.3 1-.5.2-.5-1.7s.2-2.7.5-1.8c.2 1 .2 2.6 0 3.5zm28 3.5c-.3.7-.5.2-.5-1.2s.2-1.9.5-1.3c.2.7.2 1.9 0 2.5zm-27 4c-.3.8-.6.5-.6-.6-.1-1.1.2-1.7.5-1.3.3.3.4 1.2.1 1.9zm2.7 6.4c.3.8.2 1.2-.4.9-.6-.3-1-1-1-1.6 0-1.4.7-1.1 1.4.7zm-24.1 31.9c.9 5.3 4.1 9 10.7 12.4 9.3 4.6 15.3 5.4 34 4.8 21.2-.8 34.4-3.9 42.7-10.3 3.5-2.7 5.3-2.5 5.3.6 0 2.5-11.7 8.3-22.5 11.1-11.1 2.9-38.6 3.8-50 1.6-20.2-3.9-28.7-12.3-24.9-24.5.7-2.5 4.1.6 4.7 4.3zm-18.9 7.1c-3.3 4.8-3.9 6.4-3.9 10.8.1 2.8.4 6.7.9 8.6l.8 3.5-2.6-2.8c-5.5-6-4.3-15.3 3-22.6 2.5-2.4 4.7-4.1 5.1-3.8.3.4-1.2 3.2-3.3 6.3zm27.6 24.8c2 2.5.8 6.1-2.2 6.4-3.4.4-6.2-3.2-4.7-6 1.2-2.2 5.2-2.4 6.9-.4zM89.8 270c1.8 1.1 3.8 2 4.6 2 .9 0 1.3 1.4 1.3 4.2v4.3l-5.4-.3c-4.6-.3-5.3-.6-4.8-2.2.3-1 .1-3.6-.4-5.9-1-4.8-.3-5.1 4.7-2.1zm134.4 2.7c.4 2.7.3 2.8-4.7 2.8-5.6 0-7.3-2.1-2.6-3.1 1.4-.3 3.3-.9 4.1-1.4 2.4-1.4 2.7-1.2 3.2 1.7zm2.3 9c.9 2.1 2.4 5.1 3.2 6.6.8 1.6 1.3 3 1.1 3.1-.1.2-2.6.6-5.3 1l-5 .6-2.7-7.5-2.7-7.5h4.9c4.7 0 5 .1 6.5 3.7zm-133 .5c2.2 1 2.5 1.7 2.5 6.5v5.3h-6.6c-5.8 0-6.5-.2-6-1.8.3-.9.8-3.5 1.2-5.7.4-2.2.9-4.3 1.1-4.8.6-1.1 4.9-.9 7.8.5z"/><path d="M96 217.9c0 1.2.6 2.1 1.6 2.1.9 0 1.4-.7 1.2-1.7-.5-2.5-2.8-2.8-2.8-.4z"/></svg>